<svg id="Calque_1" data-name="Calque 1" xmlns="http://www.w3.org/2000/svg" viewBox="0 0 220.14 220.14"><defs><style>.cls-1{fill:#d29e9c;}.cls-2{fill:#ab8281;}.cls-3{fill:#fff;}</style></defs><title>Plan de travail 2</title><circle class="cls-1" cx="110.07" cy="110.07" r="110.07"/><path class="cls-2" d="M220.68,109c0-1.51,0-3-.1-4.5L157.74,42.22H143.9L60.11,173.89,106.22,219c1.46.06,2.92.1,4.39.1A110.07,110.07,0,0,0,220.68,109Z"/><path class="cls-2" d="M41.82,100.08,80.68,140.6l38.91-59.1L69.75,43.71,78.81,68s9,30.55,10.17,32.05Z"/><polygon class="cls-2" points="70.21 61.3 58.24 100.57 49.34 100.08 65.23 50.15 70.21 61.3"/><polygon class="cls-2" points="61.6 86.73 84.42 86.73 79.94 82.24 61.6 82.62 61.6 86.73"/><path class="cls-3" d="M55.2,82.35l-5.86,17.73H41.82L61,43.71h8.78L89,100.08H81.2l-6-17.73Zm18.48-5.69L68.16,60.44c-1.26-3.68-2.09-7-2.93-10.29h-.17c-.83,3.35-1.75,6.78-2.84,10.21L56.7,76.66Z"/><polygon class="cls-3" points="60.11 173.89 73.2 174.64 157.74 42.22 143.9 42.22 60.11 173.89"/><polygon class="cls-1" points="136.05 173.52 138.29 130.13 149.51 172.77 136.05 173.52"/><polygon class="cls-1" points="173.83 173.52 171.58 130.13 160.36 172.77 173.83 173.52"/><path class="cls-3" d="M169.27,149.06c-.41-7.64-.89-16.83-.81-23.66h-.25c-1.87,6.42-4.15,13.25-6.91,20.82l-9.68,26.6h-5.37l-8.87-26.11c-2.6-7.73-4.79-14.81-6.34-21.31h-.16c-.17,6.83-.57,16-1.06,24.23l-1.47,23.51H121.6l3.83-54.82h9l9.35,26.52c2.28,6.75,4.15,12.77,5.53,18.46h.24c1.39-5.53,3.34-11.55,5.78-18.46l9.76-26.52h9l3.42,54.82h-6.92Z"/></svg>